<?xml version="1.0" encoding="UTF-8"?>
<!DOCTYPE svg PUBLIC "-//W3C//DTD SVG 1.1//EN" "http://www.w3.org/Graphics/SVG/1.1/DTD/svg11.dtd">
<!-- Creator: CorelDRAW -->
<svg xmlns="http://www.w3.org/2000/svg" xml:space="preserve" width="2.41269in" height="0.915031in" version="1.1" style="shape-rendering:geometricPrecision; text-rendering:geometricPrecision; image-rendering:optimizeQuality; fill-rule:evenodd; clip-rule:evenodd"
viewBox="0 0 3589.12 1361.21"
 xmlns:xlink="http://www.w3.org/1999/xlink"
 xmlns:xodm="http://www.corel.com/coreldraw/odm/2003">
 <defs>
  <style type="text/css">
   <![CDATA[
    .str0 {stroke:#3A4856;stroke-width:4.46;stroke-miterlimit:2.61313}
    .fil1 {fill:none;fill-rule:nonzero}
    .fil4 {fill:#009491}
    .fil5 {fill:#192D35}
    .fil2 {fill:#3A4856}
    .fil3 {fill:#009491;fill-rule:nonzero}
    .fil0 {fill:#3A4856;fill-rule:nonzero}
   ]]>
  </style>
 </defs>
 <g id="Layer_x0020_1">
  <metadata id="CorelCorpID_0Corel-Layer"/>
  <path class="fil0" d="M141.67 1245.7c14.51,-1.15 25.99,-6.35 34.42,-15.54 8.43,-9.18 12.68,-21.1 12.76,-35.77l0 -60.53 14.31 0 0 59.86c0,18.76 -5.44,33.82 -16.38,45.27 -10.89,11.4 -25.91,17.72 -45.11,18.88l0 45.55 -14.43 0 0 -45.66c-18.4,-1.15 -32.99,-7.36 -43.8,-18.6 -10.77,-11.21 -16.29,-25.87 -16.53,-43.92l0 -61.37 14.35 0 0 60.53c0,9.62 1.91,18.16 5.76,25.71 3.82,7.51 9.22,13.44 16.09,17.8 6.92,4.33 14.95,6.92 24.13,7.79l0 -111.84 14.43 0 0 111.84z"/>
  <path id="_1" class="fil0" d="M249.58 1177.5l0.71 19.95c8.83,-14.91 22.26,-22.34 40.26,-22.34 14.31,0 24.84,3.89 31.64,11.65 6.79,7.75 10.21,19.79 10.29,36.12l0 128.94 -13.99 0 0 -128.22c0,-12.36 -2.46,-21.54 -7.39,-27.54 -4.93,-6 -12.8,-9.03 -23.68,-9.03 -18.92,0 -31.2,9.82 -36.76,29.45l0 86.92 -13.99 0 0 -125.91 12.91 0z"/>
  <path id="_2" class="fil0" d="M425.09 1305.56c-19.71,-1.23 -34.81,-7.67 -45.23,-19.32 -10.45,-11.6 -15.66,-27.38 -15.66,-47.33 0,-13.24 2.62,-25.2 7.95,-35.81 5.32,-10.61 12.76,-19.16 22.3,-25.6l7.36 10.1c-7.32,5.36 -13.04,12.64 -17.17,21.86 -4.18,9.22 -6.32,19.08 -6.48,29.53 0,16.05 4.05,28.85 12.16,38.39 8.11,9.5 19.71,14.95 34.78,16.26l0 -91.97c0,-7.27 2.31,-13.11 7,-17.52 4.65,-4.42 10.57,-6.64 17.8,-6.64 9.53,0 18.32,2.71 26.31,8.15 7.99,5.41 14.23,12.91 18.76,22.5 4.49,9.58 6.76,20.19 6.76,31.83 0,18.84 -5.56,34.14 -16.65,45.99 -11.13,11.8 -26.43,18.36 -46.03,19.59l0 53.42 -13.95 0 0 -53.42zm13.95 -11.8c14.99,-1.23 26.87,-6.79 35.65,-16.65 8.79,-9.86 13.16,-22.18 13.16,-36.97 -0.16,-14.38 -3.82,-26.39 -10.97,-36.01 -7.12,-9.66 -16.14,-14.47 -26.99,-14.47 -3.18,0 -5.8,1.11 -7.79,3.3 -2.03,2.23 -3.06,5.05 -3.06,8.54l0 92.25z"/>
  <path id="_3" class="fil0" d="M549.62 1177.5l0 94.56c0,6.83 1.27,11.96 3.77,15.34 2.51,3.38 6.72,5.05 12.64,5.05 3.66,0 7.4,-0.4 11.29,-1.15l0.6 11.57c-4.29,1.15 -9.27,1.75 -14.91,1.75 -9.58,0 -16.5,-2.78 -20.87,-8.31 -4.33,-5.56 -6.52,-13.71 -6.52,-24.52l0 -94.28 13.99 0z"/>
  <path id="_4" class="fil0" d="M697.94 1177.5l0 94.63c0.08,14.03 4.02,21.03 11.77,21.03 1.63,0 3.58,-0.32 5.85,-0.91l1.94 10.85c-3.18,1.79 -6.95,2.7 -11.4,2.7 -6.04,0 -10.89,-1.75 -14.47,-5.28 -3.61,-3.54 -5.96,-9.42 -7.07,-17.65 -8.54,15.3 -21.7,22.93 -39.46,22.93 -14.03,0 -25.36,-5.05 -33.95,-15.18 -8.58,-10.14 -13.23,-24.09 -14.03,-41.85l-0.12 -7.32c0,-20.55 4.37,-36.76 13.03,-48.6 8.71,-11.81 20.47,-17.73 35.29,-17.73 17.61,0 30.65,7.95 38.99,23.85l1.67 -21.46 11.96 0zm-86.96 66.46c0,15.82 3.18,28.14 9.54,36.96 6.36,8.79 15.42,13.2 27.15,13.2 16.97,0 29.09,-9.34 36.32,-28.06l0 -48.41c-3.41,-9.77 -8.22,-17.32 -14.38,-22.61 -6.16,-5.32 -13.44,-7.99 -21.74,-7.99 -11.57,0 -20.59,4.81 -27.1,14.43 -6.52,9.62 -9.78,23.77 -9.78,42.49z"/>
  <polygon id="_5" class="fil0" points="767.22,1245.47 751.28,1245.47 751.28,1303.41 737.21,1303.41 737.21,1177.5 751.28,1177.5 751.28,1233.3 766.9,1233.3 818.49,1177.5 835.46,1177.5 779.58,1238.71 841.3,1303.41 823.58,1303.41 "/>
  <path id="_6" class="fil0" d="M860.1 1268.87c0,-15.54 8.74,-25.56 26.19,-30.09 -7.67,-2.71 -13.59,-6.52 -17.76,-11.41 -4.13,-4.93 -6.2,-10.41 -6.2,-16.45 0,-11.29 4.37,-20.07 13.16,-26.36 8.78,-6.32 20.82,-9.46 36.21,-9.46 14.35,0 26.35,3.42 35.93,10.26 9.58,6.83 14.39,15.5 14.39,25.99l-13.87 0c0,-7.07 -3.5,-12.96 -10.54,-17.61 -7.03,-4.65 -15.65,-6.96 -25.91,-6.96 -10.85,0 -19.47,2.11 -25.79,6.32 -6.32,4.22 -9.5,10.06 -9.5,17.53 0,15.1 11.92,22.65 35.77,22.65l20.59 0 0 11.68 -22.33 0c-11.81,0.08 -20.79,2.03 -26.99,5.85 -6.16,3.81 -9.22,9.9 -9.22,18.32 0,7.56 3.38,13.59 10.18,18.13 6.79,4.57 15.9,6.83 27.3,6.83 11.09,0 20.27,-2.54 27.54,-7.59 7.23,-5.09 10.89,-11.49 10.89,-19.2l13.95 0c0,11.65 -4.89,20.98 -14.71,27.98 -9.82,6.99 -22.38,10.49 -37.68,10.49 -15.46,0 -27.9,-3.38 -37.36,-10.1 -9.5,-6.71 -14.23,-15.65 -14.23,-26.82zm54.22 -145.03l13.75 0 -12.72 35.29 -9.66 -0.12 8.63 -35.18z"/>
  <path id="_7" class="fil0" d="M1044.08 1175.11c14.03,0 25.44,4.05 34.18,12.16 8.7,8.11 13.08,19.08 13.08,32.91l-13.28 0c0,-10.1 -3.06,-18.13 -9.26,-24.12 -6.16,-6 -14.39,-9.03 -24.72,-9.03 -12.21,0 -21.86,4.69 -29.01,14.11 -7.12,9.38 -10.69,22.02 -10.69,37.96l0 3.85c0,25.68 15.54,42.33 46.7,49.96 11.41,2.78 18.96,6 22.61,9.66 3.7,3.66 5.57,8.74 5.57,15.26 0,4.73 -1.95,10.1 -5.76,16.06 -3.86,6 -8.03,10.45 -12.52,13.39l-7.71 -6.64 3.38 -3.06c6.12,-5.72 9.22,-11.88 9.22,-18.4 0,-4.05 -1.28,-7.12 -3.82,-9.18 -2.5,-2.03 -7.67,-3.94 -15.54,-5.65 -18.52,-4.05 -32.55,-11.21 -42.01,-21.5 -9.5,-10.26 -14.23,-23.57 -14.23,-39.87l0 -5.01c0,-12.04 2.23,-22.85 6.72,-32.47 4.45,-9.66 10.77,-17.13 18.96,-22.42 8.19,-5.32 17.57,-7.99 28.14,-7.99z"/>
  <polygon id="_8" class="fil0" points="1239.54,1154.81 1186.21,1303.41 1170.7,1303.41 1232.67,1133.86 1246.5,1133.86 1308.58,1303.41 1293.08,1303.41 "/>
  <path id="_9" class="fil0" d="M1348.09 1177.5l0 79.57c0.08,12.12 2.51,21.31 7.32,27.63 4.81,6.28 11.73,9.42 20.74,9.42 11.65,0 21.07,-4.97 28.3,-14.91 7.2,-9.93 10.81,-22.81 10.81,-38.55 -0.24,-20.35 -4.77,-41.42 -13.63,-63.16l15.15 0c4.49,11.01 7.71,21.51 9.54,31.44 1.87,9.94 2.82,20.39 2.82,31.44 0,19.95 -4.69,35.81 -14.11,47.66 -9.38,11.84 -22.14,17.76 -38.31,17.76 -13.87,0 -24.44,-4.17 -31.71,-12.56 -7.27,-8.39 -10.89,-20.75 -10.89,-37.04l0 -78.7 13.99 0zm31.92 -51.27l13.75 0 -12.72 35.29 -9.66 -0.12 8.63 -35.18z"/>
  <path id="_10" class="fil0" d="M1575.35 1189.66l-36.53 0c8.43,5.29 15.02,12.28 19.71,20.98 4.69,8.7 7.03,18.76 7.03,30.17l0 3.81c0,11.49 -2.3,21.9 -6.95,31.28 -4.69,9.38 -11.25,16.73 -19.75,21.98 -8.5,5.28 -18.12,7.91 -28.82,7.91 -16.69,0 -30.17,-5.88 -40.46,-17.65 -10.3,-11.77 -15.42,-27.34 -15.42,-46.74l0 -2.78c0,-18.09 5.17,-32.79 15.54,-44.12 10.37,-11.33 23.89,-17.01 40.58,-17.01l65.06 0 0 12.16zm-107.23 52.94c0,15.26 3.85,27.66 11.53,37.2 7.71,9.54 17.8,14.31 30.4,14.31 12.32,0 22.38,-4.77 30.09,-14.27 7.75,-9.5 11.61,-22.3 11.61,-38.43l0 -2.66c0,-14.35 -3.86,-26.12 -11.53,-35.29 -7.71,-9.18 -17.89,-13.79 -30.53,-13.79 -12.4,0 -22.45,4.65 -30.09,13.91 -7.67,9.26 -11.49,21.31 -11.49,36.09l0 2.94z"/>
  <path id="_11" class="fil0" d="M1588.42 1268.87c0,-15.54 8.74,-25.56 26.19,-30.09 -7.67,-2.71 -13.59,-6.52 -17.76,-11.41 -4.13,-4.93 -6.2,-10.41 -6.2,-16.45 0,-11.29 4.37,-20.07 13.16,-26.36 8.78,-6.32 20.82,-9.46 36.21,-9.46 14.35,0 26.35,3.42 35.93,10.26 9.58,6.83 14.39,15.5 14.39,25.99l-13.87 0c0,-7.07 -3.5,-12.96 -10.54,-17.61 -7.03,-4.65 -15.65,-6.96 -25.91,-6.96 -10.85,0 -19.47,2.11 -25.79,6.32 -6.32,4.22 -9.5,10.06 -9.5,17.53 0,15.1 11.92,22.65 35.77,22.65l20.59 0 0 11.68 -22.33 0c-11.81,0.08 -20.79,2.03 -26.99,5.85 -6.16,3.81 -9.22,9.9 -9.22,18.32 0,7.56 3.38,13.59 10.18,18.13 6.79,4.57 15.9,6.83 27.3,6.83 11.09,0 20.27,-2.54 27.54,-7.59 7.23,-5.09 10.89,-11.49 10.89,-19.2l13.95 0c0,11.65 -4.89,20.98 -14.71,27.98 -9.82,6.99 -22.38,10.49 -37.68,10.49 -15.46,0 -27.9,-3.38 -37.36,-10.1 -9.5,-6.71 -14.23,-15.65 -14.23,-26.82z"/>
  <path id="_12" class="fil0" d="M1740.81 1177.5l0 94.56c0,6.83 1.27,11.96 3.77,15.34 2.51,3.38 6.72,5.05 12.64,5.05 3.66,0 7.4,-0.4 11.29,-1.15l0.6 11.57c-4.29,1.15 -9.27,1.75 -14.91,1.75 -9.58,0 -16.5,-2.78 -20.87,-8.31 -4.33,-5.56 -6.52,-13.71 -6.52,-24.52l0 -94.28 13.99 0z"/>
  <path id="_13" class="fil0" d="M1842.04 1175.11c14.03,0 25.44,4.05 34.18,12.16 8.7,8.11 13.08,19.08 13.08,32.91l-13.28 0c0,-10.1 -3.06,-18.13 -9.26,-24.12 -6.16,-6 -14.39,-9.03 -24.72,-9.03 -12.21,0 -21.86,4.69 -29.01,14.11 -7.12,9.38 -10.69,22.02 -10.69,37.96l0 3.85c0,25.68 15.54,42.33 46.7,49.96 11.41,2.78 18.96,6 22.61,9.66 3.7,3.66 5.57,8.74 5.57,15.26 0,4.73 -1.95,10.1 -5.76,16.06 -3.86,6 -8.03,10.45 -12.52,13.39l-7.71 -6.64 3.38 -3.06c6.12,-5.72 9.22,-11.88 9.22,-18.4 0,-4.05 -1.28,-7.12 -3.82,-9.18 -2.5,-2.03 -7.67,-3.94 -15.54,-5.65 -18.52,-4.05 -32.55,-11.21 -42.01,-21.5 -9.5,-10.26 -14.23,-23.57 -14.23,-39.87l0 -5.01c0,-12.04 2.23,-22.85 6.72,-32.47 4.45,-9.66 10.77,-17.13 18.96,-22.42 8.19,-5.32 17.57,-7.99 28.14,-7.99z"/>
  <polygon id="_14" class="fil0" points="2075.81,1222.1 1996.48,1222.1 1996.48,1291.25 2087.65,1291.25 2087.65,1303.41 1982.18,1303.41 1982.18,1133.86 2087.1,1133.86 2087.1,1146.02 1996.48,1146.02 1996.48,1209.93 2075.81,1209.93 "/>
  <path id="_15" class="fil0" d="M2228.27 1189.66l-21.51 0 0 82.07c0,7 1.24,12.16 3.7,15.58 2.51,3.41 6.72,5.12 12.72,5.12 3.61,0 7.39,-0.4 11.29,-1.15l0.56 11.57c-4.25,1.15 -9.22,1.75 -14.91,1.75 -9.38,0 -16.25,-2.66 -20.59,-8.03 -4.33,-5.33 -6.59,-13.2 -6.76,-23.57l0 -83.35 -55.32 0 0 113.75 -13.95 0 0 -113.75 -21.18 0 0 -12.16 125.95 0 0 12.16z"/>
  <path id="_16" class="fil0" d="M2273.5 1177.5l0 94.56c0,6.83 1.27,11.96 3.77,15.34 2.51,3.38 6.72,5.05 12.64,5.05 3.66,0 7.4,-0.4 11.29,-1.15l0.6 11.57c-4.29,1.15 -9.27,1.75 -14.91,1.75 -9.58,0 -16.5,-2.78 -20.87,-8.31 -4.33,-5.56 -6.52,-13.71 -6.52,-24.52l0 -94.28 13.99 0z"/>
  <path id="_17" class="fil0" d="M2325.84 1176.07c11.49,0 20.5,6.64 27.02,19.95l4.65 9.66 17.93 40.58 35.89 -68.76 14.55 0 -43.68 84.02 25.28 56.84 4.05 8.38c4.45,9.27 9.26,13.87 14.47,13.87 4.65,0 7.79,-0.24 9.42,-0.71l-2.23 11.96c-1.99,0.91 -4.69,1.39 -8.03,1.39 -6.2,0 -11.4,-2.03 -15.58,-6.08 -4.21,-4.02 -9.06,-12.25 -14.58,-24.69l-20.47 -46.3 -39.23 75.4 -14.82 0 47.29 -90.78 -22.69 -51.35 -3.85 -8.07c-4.33,-8.79 -10.13,-13.15 -17.37,-13.15l-7.91 0.71 -0.56 -11.49c3.26,-0.91 6.72,-1.39 10.45,-1.39z"/>
  <path id="_18" class="fil0" d="M2438.2 1268.87c0,-15.54 8.74,-25.56 26.19,-30.09 -7.67,-2.71 -13.59,-6.52 -17.76,-11.41 -4.13,-4.93 -6.2,-10.41 -6.2,-16.45 0,-11.29 4.37,-20.07 13.16,-26.36 8.78,-6.32 20.82,-9.46 36.21,-9.46 14.35,0 26.35,3.42 35.93,10.26 9.58,6.83 14.39,15.5 14.39,25.99l-13.87 0c0,-7.07 -3.5,-12.96 -10.54,-17.61 -7.03,-4.65 -15.65,-6.96 -25.91,-6.96 -10.85,0 -19.47,2.11 -25.79,6.32 -6.32,4.22 -9.5,10.06 -9.5,17.53 0,15.1 11.92,22.65 35.77,22.65l20.59 0 0 11.68 -22.33 0c-11.81,0.08 -20.79,2.03 -26.99,5.85 -6.16,3.81 -9.22,9.9 -9.22,18.32 0,7.56 3.38,13.59 10.18,18.13 6.79,4.57 15.9,6.83 27.3,6.83 11.09,0 20.27,-2.54 27.54,-7.59 7.23,-5.09 10.89,-11.49 10.89,-19.2l13.95 0c0,11.65 -4.89,20.98 -14.71,27.98 -9.82,6.99 -22.38,10.49 -37.68,10.49 -15.46,0 -27.9,-3.38 -37.36,-10.1 -9.5,-6.71 -14.23,-15.65 -14.23,-26.82z"/>
  <path id="_19" class="fil0" d="M2590.58 1177.5l0 94.56c0,6.83 1.27,11.96 3.77,15.34 2.51,3.38 6.72,5.05 12.64,5.05 3.66,0 7.4,-0.4 11.29,-1.15l0.6 11.57c-4.29,1.15 -9.27,1.75 -14.91,1.75 -9.58,0 -16.5,-2.78 -20.87,-8.31 -4.33,-5.56 -6.52,-13.71 -6.52,-24.52l0 -94.28 13.99 0z"/>
  <path id="_20" class="fil0" d="M2695.9 1175.11c15.9,0 28.3,5.96 37.24,17.89 8.94,11.92 13.39,28.26 13.39,49.09l0 1.87c0,18.96 -4.25,33.98 -12.76,45.11 -8.5,11.17 -20.19,16.73 -35.09,16.73 -17.25,0 -30.37,-5.88 -39.35,-17.69l0 63.72 -13.99 0 0 -119.91c0.16,-17.29 4.85,-31.08 14.11,-41.38 9.22,-10.29 21.38,-15.42 36.45,-15.42zm-36.56 97.22c7.03,14.51 19.12,21.78 36.21,21.78 11.73,0 20.83,-4.37 27.3,-13.11 6.48,-8.74 9.7,-21.86 9.7,-39.43 0,-16.86 -3.18,-30.17 -9.54,-39.91 -6.36,-9.73 -15.42,-14.62 -27.1,-14.62 -10.97,0 -19.75,4.29 -26.39,12.92 -6.64,8.62 -10.01,20.27 -10.06,34.97l-0.12 37.4z"/>
  <path id="_21" class="fil0" d="M2791.01 1177.5l0.71 19.95c8.83,-14.91 22.26,-22.34 40.26,-22.34 14.31,0 24.84,3.89 31.64,11.65 6.79,7.75 10.21,19.79 10.29,36.12l0 128.94 -13.99 0 0 -128.22c0,-12.36 -2.46,-21.54 -7.39,-27.54 -4.93,-6 -12.8,-9.03 -23.68,-9.03 -18.92,0 -31.2,9.82 -36.76,29.45l0 86.92 -13.99 0 0 -125.91 12.91 0zm38.36 -53.89l13.75 0 -12.72 35.29 -9.66 -0.12 8.63 -35.18z"/>
  <path id="_22" class="fil0" d="M3024.24 1189.66l-36.53 0c8.43,5.29 15.02,12.28 19.71,20.98 4.69,8.7 7.03,18.76 7.03,30.17l0 3.81c0,11.49 -2.3,21.9 -6.95,31.28 -4.69,9.38 -11.25,16.73 -19.75,21.98 -8.5,5.28 -18.12,7.91 -28.82,7.91 -16.69,0 -30.17,-5.88 -40.46,-17.65 -10.3,-11.77 -15.42,-27.34 -15.42,-46.74l0 -2.78c0,-18.09 5.17,-32.79 15.54,-44.12 10.37,-11.33 23.89,-17.01 40.58,-17.01l65.06 0 0 12.16zm-107.23 52.94c0,15.26 3.85,27.66 11.53,37.2 7.71,9.54 17.8,14.31 30.4,14.31 12.32,0 22.38,-4.77 30.09,-14.27 7.75,-9.5 11.61,-22.3 11.61,-38.43l0 -2.66c0,-14.35 -3.86,-26.12 -11.53,-35.29 -7.71,-9.18 -17.89,-13.79 -30.53,-13.79 -12.4,0 -22.45,4.65 -30.09,13.91 -7.67,9.26 -11.49,21.31 -11.49,36.09l0 2.94z"/>
  <path id="_23" class="fil0" d="M3037.31 1268.87c0,-15.54 8.74,-25.56 26.19,-30.09 -7.67,-2.71 -13.59,-6.52 -17.76,-11.41 -4.13,-4.93 -6.2,-10.41 -6.2,-16.45 0,-11.29 4.37,-20.07 13.16,-26.36 8.78,-6.32 20.82,-9.46 36.21,-9.46 14.35,0 26.35,3.42 35.93,10.26 9.58,6.83 14.39,15.5 14.39,25.99l-13.87 0c0,-7.07 -3.5,-12.96 -10.54,-17.61 -7.03,-4.65 -15.65,-6.96 -25.91,-6.96 -10.85,0 -19.47,2.11 -25.79,6.32 -6.32,4.22 -9.5,10.06 -9.5,17.53 0,15.1 11.92,22.65 35.77,22.65l20.59 0 0 11.68 -22.33 0c-11.81,0.08 -20.79,2.03 -26.99,5.85 -6.16,3.81 -9.22,9.9 -9.22,18.32 0,7.56 3.38,13.59 10.18,18.13 6.79,4.57 15.9,6.83 27.3,6.83 11.09,0 20.27,-2.54 27.54,-7.59 7.23,-5.09 10.89,-11.49 10.89,-19.2l13.95 0c0,11.65 -4.89,20.98 -14.71,27.98 -9.82,6.99 -22.38,10.49 -37.68,10.49 -15.46,0 -27.9,-3.38 -37.36,-10.1 -9.5,-6.71 -14.23,-15.65 -14.23,-26.82z"/>
  <path id="_24" class="fil0" d="M3201.54 1177.5c-11.24,22.06 -17.01,43.52 -17.25,64.43 0,15.98 2.74,28.69 8.23,38.07 5.48,9.42 13.07,14.11 22.89,14.11 9.54,0 16.93,-3.81 22.18,-11.41 5.25,-7.63 7.91,-18.76 8.07,-33.47l0 -35.41 14.11 0 0 35.29c0.16,14.71 2.82,25.87 8.03,33.51 5.21,7.67 12.64,11.49 22.33,11.49 9.66,0 17.25,-4.65 22.78,-13.99 5.56,-9.3 8.35,-22.06 8.35,-38.19 -0.24,-20.51 -6.04,-41.97 -17.37,-64.43l15.26 0c5.96,11.97 10.14,22.89 12.44,32.79 2.35,9.9 3.5,20.35 3.5,31.36 0,19.87 -3.89,35.53 -11.77,46.98 -7.83,11.44 -18.68,17.17 -32.59,17.17 -9.22,0 -17.13,-2.42 -23.65,-7.23 -6.52,-4.81 -11.33,-12.2 -14.43,-22.21 -6.04,19.63 -18.72,29.45 -37.96,29.45 -13.99,0 -24.84,-5.76 -32.59,-17.25 -7.79,-11.49 -11.65,-27.1 -11.65,-46.9 0,-11.49 1.19,-22.3 3.66,-32.43 2.46,-10.14 6.55,-20.71 12.28,-31.72l15.14 0z"/>
  <polygon id="_25" class="fil0" points="3407.1,1284.21 3445.37,1177.5 3459.72,1177.5 3412.66,1303.41 3401.37,1303.41 3354.12,1177.5 3368.42,1177.5 "/>
  <path id="_26" class="fil1 str0" d="M141.67 1245.7c14.51,-1.15 25.99,-6.35 34.42,-15.54 8.43,-9.18 12.68,-21.1 12.76,-35.77l0 -60.53 14.31 0 0 59.86c0,18.76 -5.44,33.82 -16.38,45.27 -10.89,11.4 -25.91,17.72 -45.11,18.88l0 45.55 -14.43 0 0 -45.66c-18.4,-1.15 -32.99,-7.36 -43.8,-18.6 -10.77,-11.21 -16.29,-25.87 -16.53,-43.92l0 -61.37 14.35 0 0 60.53c0,9.62 1.91,18.16 5.76,25.71 3.82,7.51 9.22,13.44 16.09,17.8 6.92,4.33 14.95,6.92 24.13,7.79l0 -111.84 14.43 0 0 111.84z"/>
  <path id="_27" class="fil1 str0" d="M249.58 1177.5l0.71 19.95c8.83,-14.91 22.26,-22.34 40.26,-22.34 14.31,0 24.84,3.89 31.64,11.65 6.79,7.75 10.21,19.79 10.29,36.12l0 128.94 -13.99 0 0 -128.22c0,-12.36 -2.46,-21.54 -7.39,-27.54 -4.93,-6 -12.8,-9.03 -23.68,-9.03 -18.92,0 -31.2,9.82 -36.76,29.45l0 86.92 -13.99 0 0 -125.91 12.91 0z"/>
  <path id="_28" class="fil1 str0" d="M425.09 1305.56c-19.71,-1.23 -34.81,-7.67 -45.23,-19.32 -10.45,-11.6 -15.66,-27.38 -15.66,-47.33 0,-13.24 2.62,-25.2 7.95,-35.81 5.32,-10.61 12.76,-19.16 22.3,-25.6l7.36 10.1c-7.32,5.36 -13.04,12.64 -17.17,21.86 -4.18,9.22 -6.32,19.08 -6.48,29.53 0,16.05 4.05,28.85 12.16,38.39 8.11,9.5 19.71,14.95 34.78,16.26l0 -91.97c0,-7.27 2.31,-13.11 7,-17.52 4.65,-4.42 10.57,-6.64 17.8,-6.64 9.53,0 18.32,2.71 26.31,8.15 7.99,5.41 14.23,12.91 18.76,22.5 4.49,9.58 6.76,20.19 6.76,31.83 0,18.84 -5.56,34.14 -16.65,45.99 -11.13,11.8 -26.43,18.36 -46.03,19.59l0 53.42 -13.95 0 0 -53.42zm13.95 -11.8c14.99,-1.23 26.87,-6.79 35.65,-16.65 8.79,-9.86 13.16,-22.18 13.16,-36.97 -0.16,-14.38 -3.82,-26.39 -10.97,-36.01 -7.12,-9.66 -16.14,-14.47 -26.99,-14.47 -3.18,0 -5.8,1.11 -7.79,3.3 -2.03,2.23 -3.06,5.05 -3.06,8.54l0 92.25z"/>
  <path id="_29" class="fil1 str0" d="M549.62 1177.5l0 94.56c0,6.83 1.27,11.96 3.77,15.34 2.51,3.38 6.72,5.05 12.64,5.05 3.66,0 7.4,-0.4 11.29,-1.15l0.6 11.57c-4.29,1.15 -9.27,1.75 -14.91,1.75 -9.58,0 -16.5,-2.78 -20.87,-8.31 -4.33,-5.56 -6.52,-13.71 -6.52,-24.52l0 -94.28 13.99 0z"/>
  <path id="_30" class="fil1 str0" d="M697.94 1177.5l0 94.63c0.08,14.03 4.02,21.03 11.77,21.03 1.63,0 3.58,-0.32 5.85,-0.91l1.94 10.85c-3.18,1.79 -6.95,2.7 -11.4,2.7 -6.04,0 -10.89,-1.75 -14.47,-5.28 -3.61,-3.54 -5.96,-9.42 -7.07,-17.65 -8.54,15.3 -21.7,22.93 -39.46,22.93 -14.03,0 -25.36,-5.05 -33.95,-15.18 -8.58,-10.14 -13.23,-24.09 -14.03,-41.85l-0.12 -7.32c0,-20.55 4.37,-36.76 13.03,-48.6 8.71,-11.81 20.47,-17.73 35.29,-17.73 17.61,0 30.65,7.95 38.99,23.85l1.67 -21.46 11.96 0zm-86.96 66.46c0,15.82 3.18,28.14 9.54,36.96 6.36,8.79 15.42,13.2 27.15,13.2 16.97,0 29.09,-9.34 36.32,-28.06l0 -48.41c-3.41,-9.77 -8.22,-17.32 -14.38,-22.61 -6.16,-5.32 -13.44,-7.99 -21.74,-7.99 -11.57,0 -20.59,4.81 -27.1,14.43 -6.52,9.62 -9.78,23.77 -9.78,42.49z"/>
  <polygon id="_31" class="fil1 str0" points="767.22,1245.47 751.28,1245.47 751.28,1303.41 737.21,1303.41 737.21,1177.5 751.28,1177.5 751.28,1233.3 766.9,1233.3 818.49,1177.5 835.46,1177.5 779.58,1238.71 841.3,1303.41 823.58,1303.41 "/>
  <path id="_32" class="fil1 str0" d="M860.1 1268.87c0,-15.54 8.74,-25.56 26.19,-30.09 -7.67,-2.71 -13.59,-6.52 -17.76,-11.41 -4.13,-4.93 -6.2,-10.41 -6.2,-16.45 0,-11.29 4.37,-20.07 13.16,-26.36 8.78,-6.32 20.82,-9.46 36.21,-9.46 14.35,0 26.35,3.42 35.93,10.26 9.58,6.83 14.39,15.5 14.39,25.99l-13.87 0c0,-7.07 -3.5,-12.96 -10.54,-17.61 -7.03,-4.65 -15.65,-6.96 -25.91,-6.96 -10.85,0 -19.47,2.11 -25.79,6.32 -6.32,4.22 -9.5,10.06 -9.5,17.53 0,15.1 11.92,22.65 35.77,22.65l20.59 0 0 11.68 -22.33 0c-11.81,0.08 -20.79,2.03 -26.99,5.85 -6.16,3.81 -9.22,9.9 -9.22,18.32 0,7.56 3.38,13.59 10.18,18.13 6.79,4.57 15.9,6.83 27.3,6.83 11.09,0 20.27,-2.54 27.54,-7.59 7.23,-5.09 10.89,-11.49 10.89,-19.2l13.95 0c0,11.65 -4.89,20.98 -14.71,27.98 -9.82,6.99 -22.38,10.49 -37.68,10.49 -15.46,0 -27.9,-3.38 -37.36,-10.1 -9.5,-6.71 -14.23,-15.65 -14.23,-26.82zm54.22 -145.03l13.75 0 -12.72 35.29 -9.66 -0.12 8.63 -35.18z"/>
  <path id="_33" class="fil1 str0" d="M1044.08 1175.11c14.03,0 25.44,4.05 34.18,12.16 8.7,8.11 13.08,19.08 13.08,32.91l-13.28 0c0,-10.1 -3.06,-18.13 -9.26,-24.12 -6.16,-6 -14.39,-9.03 -24.72,-9.03 -12.21,0 -21.86,4.69 -29.01,14.11 -7.12,9.38 -10.69,22.02 -10.69,37.96l0 3.85c0,25.68 15.54,42.33 46.7,49.96 11.41,2.78 18.96,6 22.61,9.66 3.7,3.66 5.57,8.74 5.57,15.26 0,4.73 -1.95,10.1 -5.76,16.06 -3.86,6 -8.03,10.45 -12.52,13.39l-7.71 -6.64 3.38 -3.06c6.12,-5.72 9.22,-11.88 9.22,-18.4 0,-4.05 -1.28,-7.12 -3.82,-9.18 -2.5,-2.03 -7.67,-3.94 -15.54,-5.65 -18.52,-4.05 -32.55,-11.21 -42.01,-21.5 -9.5,-10.26 -14.23,-23.57 -14.23,-39.87l0 -5.01c0,-12.04 2.23,-22.85 6.72,-32.47 4.45,-9.66 10.77,-17.13 18.96,-22.42 8.19,-5.32 17.57,-7.99 28.14,-7.99z"/>
  <polygon id="_34" class="fil1 str0" points="1239.54,1154.81 1186.21,1303.41 1170.7,1303.41 1232.67,1133.86 1246.5,1133.86 1308.58,1303.41 1293.08,1303.41 "/>
  <path id="_35" class="fil1 str0" d="M1348.09 1177.5l0 79.57c0.08,12.12 2.51,21.31 7.32,27.63 4.81,6.28 11.73,9.42 20.74,9.42 11.65,0 21.07,-4.97 28.3,-14.91 7.2,-9.93 10.81,-22.81 10.81,-38.55 -0.24,-20.35 -4.77,-41.42 -13.63,-63.16l15.15 0c4.49,11.01 7.71,21.51 9.54,31.44 1.87,9.94 2.82,20.39 2.82,31.44 0,19.95 -4.69,35.81 -14.11,47.66 -9.38,11.84 -22.14,17.76 -38.31,17.76 -13.87,0 -24.44,-4.17 -31.71,-12.56 -7.27,-8.39 -10.89,-20.75 -10.89,-37.04l0 -78.7 13.99 0zm31.92 -51.27l13.75 0 -12.72 35.29 -9.66 -0.12 8.63 -35.18z"/>
  <path id="_36" class="fil1 str0" d="M1575.35 1189.66l-36.53 0c8.43,5.29 15.02,12.28 19.71,20.98 4.69,8.7 7.03,18.76 7.03,30.17l0 3.81c0,11.49 -2.3,21.9 -6.95,31.28 -4.69,9.38 -11.25,16.73 -19.75,21.98 -8.5,5.28 -18.12,7.91 -28.82,7.91 -16.69,0 -30.17,-5.88 -40.46,-17.65 -10.3,-11.77 -15.42,-27.34 -15.42,-46.74l0 -2.78c0,-18.09 5.17,-32.79 15.54,-44.12 10.37,-11.33 23.89,-17.01 40.58,-17.01l65.06 0 0 12.16zm-107.23 52.94c0,15.26 3.85,27.66 11.53,37.2 7.71,9.54 17.8,14.31 30.4,14.31 12.32,0 22.38,-4.77 30.09,-14.27 7.75,-9.5 11.61,-22.3 11.61,-38.43l0 -2.66c0,-14.35 -3.86,-26.12 -11.53,-35.29 -7.71,-9.18 -17.89,-13.79 -30.53,-13.79 -12.4,0 -22.45,4.65 -30.09,13.91 -7.67,9.26 -11.49,21.31 -11.49,36.09l0 2.94z"/>
  <path id="_37" class="fil1 str0" d="M1588.42 1268.87c0,-15.54 8.74,-25.56 26.19,-30.09 -7.67,-2.71 -13.59,-6.52 -17.76,-11.41 -4.13,-4.93 -6.2,-10.41 -6.2,-16.45 0,-11.29 4.37,-20.07 13.16,-26.36 8.78,-6.32 20.82,-9.46 36.21,-9.46 14.35,0 26.35,3.42 35.93,10.26 9.58,6.83 14.39,15.5 14.39,25.99l-13.87 0c0,-7.07 -3.5,-12.96 -10.54,-17.61 -7.03,-4.65 -15.65,-6.96 -25.91,-6.96 -10.85,0 -19.47,2.11 -25.79,6.32 -6.32,4.22 -9.5,10.06 -9.5,17.53 0,15.1 11.92,22.65 35.77,22.65l20.59 0 0 11.68 -22.33 0c-11.81,0.08 -20.79,2.03 -26.99,5.85 -6.16,3.81 -9.22,9.9 -9.22,18.32 0,7.56 3.38,13.59 10.18,18.13 6.79,4.57 15.9,6.83 27.3,6.83 11.09,0 20.27,-2.54 27.54,-7.59 7.23,-5.09 10.89,-11.49 10.89,-19.2l13.95 0c0,11.65 -4.89,20.98 -14.71,27.98 -9.82,6.99 -22.38,10.49 -37.68,10.49 -15.46,0 -27.9,-3.38 -37.36,-10.1 -9.5,-6.71 -14.23,-15.65 -14.23,-26.82z"/>
  <path id="_38" class="fil1 str0" d="M1740.81 1177.5l0 94.56c0,6.83 1.27,11.96 3.77,15.34 2.51,3.38 6.72,5.05 12.64,5.05 3.66,0 7.4,-0.4 11.29,-1.15l0.6 11.57c-4.29,1.15 -9.27,1.75 -14.91,1.75 -9.58,0 -16.5,-2.78 -20.87,-8.31 -4.33,-5.56 -6.52,-13.71 -6.52,-24.52l0 -94.28 13.99 0z"/>
  <path id="_39" class="fil1 str0" d="M1842.04 1175.11c14.03,0 25.44,4.05 34.18,12.16 8.7,8.11 13.08,19.08 13.08,32.91l-13.28 0c0,-10.1 -3.06,-18.13 -9.26,-24.12 -6.16,-6 -14.39,-9.03 -24.72,-9.03 -12.21,0 -21.86,4.69 -29.01,14.11 -7.12,9.38 -10.69,22.02 -10.69,37.96l0 3.85c0,25.68 15.54,42.33 46.7,49.96 11.41,2.78 18.96,6 22.61,9.66 3.7,3.66 5.57,8.74 5.57,15.26 0,4.73 -1.95,10.1 -5.76,16.06 -3.86,6 -8.03,10.45 -12.52,13.39l-7.71 -6.64 3.38 -3.06c6.12,-5.72 9.22,-11.88 9.22,-18.4 0,-4.05 -1.28,-7.12 -3.82,-9.18 -2.5,-2.03 -7.67,-3.94 -15.54,-5.65 -18.52,-4.05 -32.55,-11.21 -42.01,-21.5 -9.5,-10.26 -14.23,-23.57 -14.23,-39.87l0 -5.01c0,-12.04 2.23,-22.85 6.72,-32.47 4.45,-9.66 10.77,-17.13 18.96,-22.42 8.19,-5.32 17.57,-7.99 28.14,-7.99z"/>
  <polygon id="_40" class="fil1 str0" points="2075.81,1222.1 1996.48,1222.1 1996.48,1291.25 2087.65,1291.25 2087.65,1303.41 1982.18,1303.41 1982.18,1133.86 2087.1,1133.86 2087.1,1146.02 1996.48,1146.02 1996.48,1209.93 2075.81,1209.93 "/>
  <path id="_41" class="fil1 str0" d="M2228.27 1189.66l-21.51 0 0 82.07c0,7 1.24,12.16 3.7,15.58 2.51,3.41 6.72,5.12 12.72,5.12 3.61,0 7.39,-0.4 11.29,-1.15l0.56 11.57c-4.25,1.15 -9.22,1.75 -14.91,1.75 -9.38,0 -16.25,-2.66 -20.59,-8.03 -4.33,-5.33 -6.59,-13.2 -6.76,-23.57l0 -83.35 -55.32 0 0 113.75 -13.95 0 0 -113.75 -21.18 0 0 -12.16 125.95 0 0 12.16z"/>
  <path id="_42" class="fil1 str0" d="M2273.5 1177.5l0 94.56c0,6.83 1.27,11.96 3.77,15.34 2.51,3.38 6.72,5.05 12.64,5.05 3.66,0 7.4,-0.4 11.29,-1.15l0.6 11.57c-4.29,1.15 -9.27,1.75 -14.91,1.75 -9.58,0 -16.5,-2.78 -20.87,-8.31 -4.33,-5.56 -6.52,-13.71 -6.52,-24.52l0 -94.28 13.99 0z"/>
  <path id="_43" class="fil1 str0" d="M2325.84 1176.07c11.49,0 20.5,6.64 27.02,19.95l4.65 9.66 17.93 40.58 35.89 -68.76 14.55 0 -43.68 84.02 25.28 56.84 4.05 8.38c4.45,9.27 9.26,13.87 14.47,13.87 4.65,0 7.79,-0.24 9.42,-0.71l-2.23 11.96c-1.99,0.91 -4.69,1.39 -8.03,1.39 -6.2,0 -11.4,-2.03 -15.58,-6.08 -4.21,-4.02 -9.06,-12.25 -14.58,-24.69l-20.47 -46.3 -39.23 75.4 -14.82 0 47.29 -90.78 -22.69 -51.35 -3.85 -8.07c-4.33,-8.79 -10.13,-13.15 -17.37,-13.15l-7.91 0.71 -0.56 -11.49c3.26,-0.91 6.72,-1.39 10.45,-1.39z"/>
  <path id="_44" class="fil1 str0" d="M2438.2 1268.87c0,-15.54 8.74,-25.56 26.19,-30.09 -7.67,-2.71 -13.59,-6.52 -17.76,-11.41 -4.13,-4.93 -6.2,-10.41 -6.2,-16.45 0,-11.29 4.37,-20.07 13.16,-26.36 8.78,-6.32 20.82,-9.46 36.21,-9.46 14.35,0 26.35,3.42 35.93,10.26 9.58,6.83 14.39,15.5 14.39,25.99l-13.87 0c0,-7.07 -3.5,-12.96 -10.54,-17.61 -7.03,-4.65 -15.65,-6.96 -25.91,-6.96 -10.85,0 -19.47,2.11 -25.79,6.32 -6.32,4.22 -9.5,10.06 -9.5,17.53 0,15.1 11.92,22.65 35.77,22.65l20.59 0 0 11.68 -22.33 0c-11.81,0.08 -20.79,2.03 -26.99,5.85 -6.16,3.81 -9.22,9.9 -9.22,18.32 0,7.56 3.38,13.59 10.18,18.13 6.79,4.57 15.9,6.83 27.3,6.83 11.09,0 20.27,-2.54 27.54,-7.59 7.23,-5.09 10.89,-11.49 10.89,-19.2l13.95 0c0,11.65 -4.89,20.98 -14.71,27.98 -9.82,6.99 -22.38,10.49 -37.68,10.49 -15.46,0 -27.9,-3.38 -37.36,-10.1 -9.5,-6.71 -14.23,-15.65 -14.23,-26.82z"/>
  <path id="_45" class="fil1 str0" d="M2590.58 1177.5l0 94.56c0,6.83 1.27,11.96 3.77,15.34 2.51,3.38 6.72,5.05 12.64,5.05 3.66,0 7.4,-0.4 11.29,-1.15l0.6 11.57c-4.29,1.15 -9.27,1.75 -14.91,1.75 -9.58,0 -16.5,-2.78 -20.87,-8.31 -4.33,-5.56 -6.52,-13.71 -6.52,-24.52l0 -94.28 13.99 0z"/>
  <path id="_46" class="fil1 str0" d="M2695.9 1175.11c15.9,0 28.3,5.96 37.24,17.89 8.94,11.92 13.39,28.26 13.39,49.09l0 1.87c0,18.96 -4.25,33.98 -12.76,45.11 -8.5,11.17 -20.19,16.73 -35.09,16.73 -17.25,0 -30.37,-5.88 -39.35,-17.69l0 63.72 -13.99 0 0 -119.91c0.16,-17.29 4.85,-31.08 14.11,-41.38 9.22,-10.29 21.38,-15.42 36.45,-15.42zm-36.56 97.22c7.03,14.51 19.12,21.78 36.21,21.78 11.73,0 20.83,-4.37 27.3,-13.11 6.48,-8.74 9.7,-21.86 9.7,-39.43 0,-16.86 -3.18,-30.17 -9.54,-39.91 -6.36,-9.73 -15.42,-14.62 -27.1,-14.62 -10.97,0 -19.75,4.29 -26.39,12.92 -6.64,8.62 -10.01,20.27 -10.06,34.97l-0.12 37.4z"/>
  <path id="_47" class="fil1 str0" d="M2791.01 1177.5l0.71 19.95c8.83,-14.91 22.26,-22.34 40.26,-22.34 14.31,0 24.84,3.89 31.64,11.65 6.79,7.75 10.21,19.79 10.29,36.12l0 128.94 -13.99 0 0 -128.22c0,-12.36 -2.46,-21.54 -7.39,-27.54 -4.93,-6 -12.8,-9.03 -23.68,-9.03 -18.92,0 -31.2,9.82 -36.76,29.45l0 86.92 -13.99 0 0 -125.91 12.91 0zm38.36 -53.89l13.75 0 -12.72 35.29 -9.66 -0.12 8.63 -35.18z"/>
  <path id="_48" class="fil1 str0" d="M3024.24 1189.66l-36.53 0c8.43,5.29 15.02,12.28 19.71,20.98 4.69,8.7 7.03,18.76 7.03,30.17l0 3.81c0,11.49 -2.3,21.9 -6.95,31.28 -4.69,9.38 -11.25,16.73 -19.75,21.98 -8.5,5.28 -18.12,7.91 -28.82,7.91 -16.69,0 -30.17,-5.88 -40.46,-17.65 -10.3,-11.77 -15.42,-27.34 -15.42,-46.74l0 -2.78c0,-18.09 5.17,-32.79 15.54,-44.12 10.37,-11.33 23.89,-17.01 40.58,-17.01l65.06 0 0 12.16zm-107.23 52.94c0,15.26 3.85,27.66 11.53,37.2 7.71,9.54 17.8,14.31 30.4,14.31 12.32,0 22.38,-4.77 30.09,-14.27 7.75,-9.5 11.61,-22.3 11.61,-38.43l0 -2.66c0,-14.35 -3.86,-26.12 -11.53,-35.29 -7.71,-9.18 -17.89,-13.79 -30.53,-13.79 -12.4,0 -22.45,4.65 -30.09,13.91 -7.67,9.26 -11.49,21.31 -11.49,36.09l0 2.94z"/>
  <path id="_49" class="fil1 str0" d="M3037.31 1268.87c0,-15.54 8.74,-25.56 26.19,-30.09 -7.67,-2.71 -13.59,-6.52 -17.76,-11.41 -4.13,-4.93 -6.2,-10.41 -6.2,-16.45 0,-11.29 4.37,-20.07 13.16,-26.36 8.78,-6.32 20.82,-9.46 36.21,-9.46 14.35,0 26.35,3.42 35.93,10.26 9.58,6.83 14.39,15.5 14.39,25.99l-13.87 0c0,-7.07 -3.5,-12.96 -10.54,-17.61 -7.03,-4.65 -15.65,-6.96 -25.91,-6.96 -10.85,0 -19.47,2.11 -25.79,6.32 -6.32,4.22 -9.5,10.06 -9.5,17.53 0,15.1 11.92,22.65 35.77,22.65l20.59 0 0 11.68 -22.33 0c-11.81,0.08 -20.79,2.03 -26.99,5.85 -6.16,3.81 -9.22,9.9 -9.22,18.32 0,7.56 3.38,13.59 10.18,18.13 6.79,4.57 15.9,6.83 27.3,6.83 11.09,0 20.27,-2.54 27.54,-7.59 7.23,-5.09 10.89,-11.49 10.89,-19.2l13.95 0c0,11.65 -4.89,20.98 -14.71,27.98 -9.82,6.99 -22.38,10.49 -37.68,10.49 -15.46,0 -27.9,-3.38 -37.36,-10.1 -9.5,-6.71 -14.23,-15.65 -14.23,-26.82z"/>
  <path id="_50" class="fil1 str0" d="M3201.54 1177.5c-11.24,22.06 -17.01,43.52 -17.25,64.43 0,15.98 2.74,28.69 8.23,38.07 5.48,9.42 13.07,14.11 22.89,14.11 9.54,0 16.93,-3.81 22.18,-11.41 5.25,-7.63 7.91,-18.76 8.07,-33.47l0 -35.41 14.11 0 0 35.29c0.16,14.71 2.82,25.87 8.03,33.51 5.21,7.67 12.64,11.49 22.33,11.49 9.66,0 17.25,-4.65 22.78,-13.99 5.56,-9.3 8.35,-22.06 8.35,-38.19 -0.24,-20.51 -6.04,-41.97 -17.37,-64.43l15.26 0c5.96,11.97 10.14,22.89 12.44,32.79 2.35,9.9 3.5,20.35 3.5,31.36 0,19.87 -3.89,35.53 -11.77,46.98 -7.83,11.44 -18.68,17.17 -32.59,17.17 -9.22,0 -17.13,-2.42 -23.65,-7.23 -6.52,-4.81 -11.33,-12.2 -14.43,-22.21 -6.04,19.63 -18.72,29.45 -37.96,29.45 -13.99,0 -24.84,-5.76 -32.59,-17.25 -7.79,-11.49 -11.65,-27.1 -11.65,-46.9 0,-11.49 1.19,-22.3 3.66,-32.43 2.46,-10.14 6.55,-20.71 12.28,-31.72l15.14 0z"/>
  <polygon id="_51" class="fil1 str0" points="3407.1,1284.21 3445.37,1177.5 3459.72,1177.5 3412.66,1303.41 3401.37,1303.41 3354.12,1177.5 3368.42,1177.5 "/>
  <path class="fil2" d="M352.03 851.17c-16.06,2.47 -110.89,2.48 -126.97,0 -63.11,-9.77 -115.25,-28.36 -154.93,-67.41 -46.74,-45.99 -70.12,-114.25 -70.12,-204.74l0 -343.87 176.46 0 0 317.86c0,93.46 37.35,142.37 112.09,146.71 74.73,-4.34 112.09,-53.25 112.09,-146.71l0 -317.86 176.46 0 0 343.87c0,90.49 -23.38,158.75 -70.12,204.74 -39.68,39.05 -91.84,57.67 -154.93,67.41z"/>
  <path class="fil3" d="M2441.69 407.8c35.06,20.3 61.86,46.86 80.42,79.67 18.54,32.82 27.81,70.69 27.81,113.66 0,50.78 -12.47,95.1 -37.43,132.98 -24.95,37.89 -60.01,67.19 -105.2,87.88 -45.18,20.7 -97.44,31.05 -156.8,31.05 -59.35,0 -111.44,-10.35 -156.29,-31.05 -44.84,-20.69 -79.57,-49.99 -104.19,-87.88 -24.62,-37.88 -36.93,-82.2 -36.93,-132.98 0,-42.97 9.28,-80.85 27.83,-113.66 18.54,-32.81 45,-59.37 79.41,-79.67 -26.3,-18.75 -46.54,-42.39 -60.7,-70.9 -14.16,-28.51 -21.24,-61.13 -21.24,-97.84 0,-47.65 11.47,-89.04 34.4,-124.19 22.93,-35.15 54.97,-62.3 96.1,-81.44 41.14,-19.12 88.34,-28.7 141.62,-28.7 53.96,0 101.67,9.58 143.15,28.7 41.47,19.14 73.67,46.29 96.61,81.44 22.93,35.15 34.38,76.54 34.38,124.19 0,36.72 -7.07,69.33 -21.24,97.84 -14.16,28.5 -34.73,52.14 -61.69,70.9zm-191.2 -263.65c-33.04,0 -59.51,9.19 -79.41,27.54 -19.9,18.37 -29.85,43.55 -29.85,75.58 0,31.25 9.79,55.86 29.34,73.82 19.56,17.96 46.19,26.96 79.91,26.96 33.73,0 60.69,-9 80.93,-26.96 20.23,-17.96 30.35,-42.57 30.35,-73.82 0,-32.02 -10.12,-57.21 -30.35,-75.58 -20.24,-18.35 -47.21,-27.54 -80.93,-27.54zm0 569.46c41.15,0 73.68,-10.74 97.63,-32.23 23.94,-21.48 35.9,-50.18 35.9,-86.12 0,-35.93 -11.96,-64.44 -35.9,-85.53 -23.94,-21.09 -56.48,-31.63 -97.63,-31.63 -40.46,0 -72.49,10.54 -96.1,31.63 -23.6,21.09 -35.4,49.6 -35.4,85.53 0,36.72 11.81,65.62 35.4,86.71 23.61,21.09 55.64,31.64 96.1,31.64z"/>
  <path class="fil2" d="M975.39 226.02c56.55,0 108.02,13 154.39,39.02 44.41,24.9 79.65,59.49 105.73,103.76l-3.06 5.38c-26.4,47.51 -39.59,102.56 -39.59,165.15 0,62.58 13.19,117.63 39.59,165.14l3.07 5.39c-26.09,44.26 -61.35,78.85 -105.74,103.75 -46.37,26.01 -97.85,39.02 -154.39,39.02 -77.68,0 -138.76,-24.5 -183.24,-73.52l0 283.91 -176.46 0 0 -827.98 168.53 0 0 70.14c43.74,-52.8 107.47,-79.18 191.17,-79.18zm-30.54 481.86c45.25,0 82.39,-15.27 111.42,-45.81 29.03,-30.54 43.56,-71.45 43.56,-122.72 0,-51.29 -14.52,-92.2 -43.56,-122.73 -29.03,-30.54 -66.17,-45.81 -111.42,-45.81 -45.25,0 -82.37,15.27 -111.42,45.81 -29.03,30.54 -43.54,71.45 -43.54,122.73 0,51.28 14.51,92.18 43.54,122.72 29.04,30.54 66.17,45.81 111.42,45.81z"/>
  <path class="fil3" d="M1904.16 4.7l0.01 848.34 -168.54 0 -0.01 -79.17c-43.74,52.78 -107.08,79.17 -190.03,79.17 -57.31,0 -109.15,-12.81 -155.54,-38.45 -46.37,-25.63 -82.75,-62.22 -109.15,-109.72 -26.4,-47.51 -39.59,-102.56 -39.59,-165.14 0,-62.59 13.18,-117.64 39.59,-165.15 26.4,-47.5 62.77,-84.07 109.15,-109.72 46.39,-25.64 98.22,-38.45 155.54,-38.45 77.67,0 138.38,24.5 182.1,73.52l0 -295.23 176.47 0zm-328.03 703.56c44.49,0 81.44,-15.27 110.84,-45.81 29.42,-30.54 44.12,-71.45 44.12,-122.72 0,-51.29 -14.7,-92.2 -44.12,-122.73 -29.4,-30.54 -66.36,-45.81 -110.84,-45.81 -45.25,0 -82.57,15.27 -111.98,45.81 -29.41,30.54 -44.11,71.45 -44.11,122.73 0,51.28 14.71,92.18 44.11,122.72 29.41,30.54 66.73,45.81 111.98,45.81z"/>
  <polygon class="fil4" points="288.54,0 172.22,207.84 404.87,207.84 "/>
  <polygon class="fil4" points="261.29,122.51 315.78,122.51 315.78,483.7 261.29,483.7 "/>
  <circle class="fil5" cx="2621.04" cy="779.27" r="67.8"/>
  <path class="fil2" d="M3219.39 399.11l0 377.29c0,83.1 -21.61,144.85 -64.83,185.28 -43.23,40.41 -106.4,60.63 -189.49,60.63 -43.79,0 -85.33,-5.34 -124.65,-16.01 -39.29,-10.67 -71.85,-26.1 -97.68,-46.31l52.21 -94.32c19.09,15.71 43.23,28.2 72.42,37.46 29.21,9.28 58.41,13.91 87.6,13.91 45.47,0 79.02,-10.26 100.64,-30.75 21.61,-20.48 32.42,-51.51 32.42,-93.05l0 -19.37c-34.24,37.62 -81.97,56.42 -143.17,56.42 -41.54,0 -79.57,-9.11 -114.1,-27.36 -34.53,-18.26 -61.9,-43.95 -82.11,-77.07 -20.22,-33.13 -30.33,-71.31 -30.33,-114.53 0,-43.23 10.1,-81.41 30.33,-114.53 20.21,-33.14 47.58,-58.82 82.11,-77.07 34.53,-18.25 72.56,-27.37 114.1,-27.37 65.69,0 115.66,21.63 149.91,64.85l0 -58.11 124.63 0zm-248.42 323.4c34.8,0 63.29,-10.24 85.47,-30.74 22.18,-20.5 33.26,-47.31 33.26,-80.43 0,-33.13 -11.08,-59.93 -33.26,-80.43 -22.17,-20.5 -50.67,-30.74 -85.47,-30.74 -34.82,0 -63.45,10.24 -85.9,30.74 -22.47,20.5 -33.69,47.3 -33.69,80.43 0,33.12 11.22,59.93 33.69,80.43 22.45,20.49 51.08,30.74 85.9,30.74zm462.35 -263.6c15.71,-21.89 36.91,-38.46 63.59,-49.69 26.65,-11.22 57.39,-16.84 92.21,-16.84l0 121.29c-14.6,-1.13 -24.43,-1.7 -29.49,-1.7 -37.62,0 -67.08,10.53 -88.42,31.6 -21.34,21.04 -32.01,52.62 -32.01,94.73l0 213.91 -131.37 0 0 -453.09 125.49 0 0 59.79z"/>
 </g>
</svg>
